<?xml version="1.0" standalone="no"?>
<!DOCTYPE svg PUBLIC "-//W3C//DTD SVG 20010904//EN"
 "http://www.w3.org/TR/2001/REC-SVG-20010904/DTD/svg10.dtd">
<svg version="1.0" xmlns="http://www.w3.org/2000/svg"
 width="456.000000pt" height="456.000000pt" viewBox="0 0 456.000000 456.000000"
 preserveAspectRatio="xMidYMid meet">
<metadata>
Created by potrace 1.11, written by Peter Selinger 2001-2013
</metadata>
<g transform="translate(0.000000,456.000000) scale(0.100000,-0.100000)"
fill="#000000" stroke="none">
<path d="M2173 4193 c-11 -15 -57 -95 -103 -178 -46 -82 -104 -186 -130 -230
-40 -69 -238 -415 -455 -800 -34 -60 -110 -195 -169 -298 l-107 -188 122 -212
c67 -117 279 -484 471 -816 192 -332 347 -605 345 -608 -5 -5 -1269 -4 -1274
1 -2 2 125 230 283 507 158 277 287 509 287 514 0 6 -47 89 -103 185 -56 96
-120 208 -143 248 -22 39 -43 72 -46 72 -4 -1 -71 -116 -151 -257 -80 -141
-194 -343 -253 -447 -60 -105 -120 -211 -134 -236 -14 -25 -53 -94 -88 -155
-95 -166 -305 -537 -422 -744 -57 -101 -101 -186 -98 -189 3 -3 337 -7 743 -9
405 -1 1094 -4 1530 -6 457 -2 792 0 792 5 0 5 -22 46 -49 91 -44 74 -272 469
-841 1457 -106 184 -223 387 -260 450 -38 63 -76 131 -85 151 l-18 36 88 154
c222 389 268 469 275 469 4 0 124 -201 266 -447 141 -247 294 -511 339 -588
77 -131 281 -486 540 -935 62 -107 131 -226 153 -265 l41 -70 -309 -5 -309 -5
146 -252 146 -253 618 0 c341 0 619 2 619 4 0 2 -24 46 -53 97 -84 146 -590
1025 -980 1699 -72 124 -164 284 -205 355 -230 398 -605 1047 -670 1160 -42
72 -93 162 -115 200 -49 85 -208 359 -212 363 -2 2 -12 -9 -22 -25z"/>
</g>
</svg>
